<?xml version="1.0" encoding="UTF-8"?>
<svg width="32" height="32" viewBox="0 0 32 32" fill="none" xmlns="http://www.w3.org/2000/svg">
  <circle cx="16" cy="16" r="14" fill="#4B5563" fill-opacity="0.9"/>
  <path d="M24 12.5C24 11.12 22.88 10 21.5 10H19V8.5C19 7.12 17.88 6 16.5 6C15.12 6 14 7.12 14 8.5V10H11.5C10.12 10 9 11.12 9 12.5V15H7.5C6.12 15 5 16.12 5 17.5C5 18.88 6.12 20 7.5 20H9V22.5C9 23.88 10.12 25 11.5 25H21.5C22.88 25 24 23.88 24 22.5V20H25.5C26.88 20 28 18.88 28 17.5C28 16.12 26.88 15 25.5 15H24V12.5Z" fill="white"/>
</svg> 